<?xml version="1.0" encoding="UTF-8" standalone="no"?>
<!-- Creator: CorelDRAW -->

<svg
   xml:space="preserve"
   width="2048"
   height="2048"
   style="clip-rule:evenodd;fill-rule:evenodd;image-rendering:optimizeQuality;shape-rendering:geometricPrecision;text-rendering:geometricPrecision"
   viewBox="0 0 2048 2048"
   version="1.1"
   id="svg72"
   sodipodi:docname="code.svg"
   xmlns:inkscape="http://www.inkscape.org/namespaces/inkscape"
   xmlns:sodipodi="http://sodipodi.sourceforge.net/DTD/sodipodi-0.dtd"
   xmlns="http://www.w3.org/2000/svg"
   xmlns:svg="http://www.w3.org/2000/svg"><sodipodi:namedview
   id="namedview74"
   pagecolor="#505050"
   bordercolor="#eeeeee"
   borderopacity="1"
   inkscape:showpageshadow="0"
   inkscape:pageopacity="0"
   inkscape:pagecheckerboard="0"
   inkscape:deskcolor="#505050"
   showgrid="false" />
 <defs
   id="defs63"><style
     type="text/css"
     id="style61">
   <![CDATA[
    .fil2 {fill:none}
    .fil1 {fill:#424242}
    .fil0 {fill:#424242;fill-rule:nonzero}
   ]]>
  </style></defs>
 <g
   id="Layer_x0020_1"
   inkscape:label="Layer 1"
   inkscape:groupmode="layer">
  <metadata
   id="CorelCorpID_0Corel-Layer" />
  <g
   id="_247743960">
   <path
   id="_325742376"
   class="fil0"
   d="M 255.998,695.305 V 490.491 c 0,-17.6728 14.328,-32.0008 32.0008,-32.0008 h 1472 c 17.6728,0 32.0008,14.328 32.0008,32.0008 v 204.814 h -1536 z m 1026.79,-150.408 c -17.6728,0 -32.0008,14.328 -32.0008,32.0008 0,17.6728 14.328,32.0008 32.0008,32.0008 h 16.5225 c 17.6728,0 32.0008,-14.328 32.0008,-32.0008 0,-17.6728 -14.328,-32.0008 -32.0008,-32.0008 z m 165.716,0 c -17.6728,0 -32.0008,14.328 -32.0008,32.0008 0,17.6728 14.328,32.0008 32.0008,32.0008 h 16.5225 c 17.6728,0 32.0008,-14.328 32.0008,-32.0008 0,-17.6728 -14.328,-32.0008 -32.0008,-32.0008 z m 165.717,0 c -17.6728,0 -32.0008,14.328 -32.0008,32.0008 0,17.6728 14.328,32.0008 32.0008,32.0008 h 16.5225 c 17.6728,0 32.0008,-14.328 32.0008,-32.0008 0,-17.6728 -14.328,-32.0008 -32.0008,-32.0008 z" />
   <path
   id="_247747080"
   class="fil1"
   d="M 1792,1557.51 V 727.307 H 256 v 830.203 c 0,17.6728 14.328,32.0008 32.0008,32.0008 h 1472 c 17.6728,0 32.0008,-14.328 32.0008,-32.0008 z m -521.915,-282.321 c 9.3709,9.3709 24.5669,9.3709 33.9378,0 9.3709,-9.3709 9.3709,-24.5669 0,-33.9378 l -82.8414,-82.8414 82.8414,-82.8414 c 9.3709,-9.3709 9.3709,-24.5669 0,-33.9378 -9.3709,-9.3709 -24.5669,-9.3709 -33.9378,0 l -99.7229,99.7229 -0.089,0.086 c -9.372,9.3721 -9.372,24.5681 0,33.9402 v 0 l 99.8103,99.8103 z m 194.882,-33.9378 c -9.3709,9.3709 -9.3709,24.5669 0,33.9378 9.3709,9.3709 24.5669,9.3709 33.9378,0 l 99.8103,-99.8103 v 0 c 9.372,-9.3721 9.372,-24.5681 0,-33.9402 l -0.089,-0.086 -99.7229,-99.7229 c -9.3709,-9.3709 -24.5669,-9.3709 -33.9378,0 -9.3709,9.3708 -9.3709,24.5669 0,33.9378 l 82.8414,82.8414 -82.8414,82.8414 z m -20.3977,-214.43 c 3.4169,-12.789 -4.1799,-25.9276 -16.9689,-29.3445 -12.789,-3.41693 -25.9276,4.1799 -29.3445,16.9689 l -73.8355,275.554 c -3.4169,12.789 4.1799,25.9276 16.9689,29.3445 12.789,3.4169 25.9276,-4.1799 29.3445,-16.9689 z m -857.695,28.565 -51.9449,-116.668 -92.6788,116.668 h 144.624 z m 15.0508,-4.6193 128.861,-119.14299 h -181.989 l 53.1284,119.14299 z m 280.029,4.6217 -130.921,-121.06003 -130.883,121.06003 h 261.803 z m 71.1532,-123.76403 h -181.788 l 128.756,119.04603 53.0327,-119.04603 z m 106.747,123.76203 -92.6056,-116.57503 -51.9319,116.57503 h 144.538 z m -282.899,310.592 280.817,-294.591 h -149.583 z m -25.9028,19.2154 139.793,-313.806 h -279.724 l 139.931,313.804 z m -25.8827,-19.1941 -131.171,-294.612 h -149.666 z" />
  </g>
 <path
   style="fill:#000000;stroke-width:2.06036"
   d="M 257.54527,586.93212 V 478.492 l 8.7924,-8.79239 c 7.55867,-7.55867 10.37744,-8.97921 20.08853,-10.12371 6.21287,-0.73222 342.29332,-1.05767 746.8454,-0.72322 709.2079,0.58631 735.7707,0.74344 741.7304,4.38762 3.3996,2.07874 8.0354,6.25098 10.3018,9.27163 3.9815,5.30657 4.1399,9.16349 4.6886,114.1762 l 0.5678,108.6841 H 1024.0527 257.54527 Z m 1059.12513,17.26209 c 9.3093,-6.27353 15.0103,-16.63955 15.0103,-27.2928 0,-10.65325 -5.701,-21.01927 -15.0103,-27.2928 -5.8971,-3.9741 -9.5906,-4.64171 -25.6431,-4.63511 -15.0775,0.006 -20.07,0.81026 -25.4687,4.10189 -19.5812,11.93879 -19.9905,41.6648 -0.7537,54.73654 6.5026,4.41864 9.6629,5.02509 26.1856,5.02509 16.083,0 19.7832,-0.66897 25.6799,-4.64281 z m 164.751,0.007 c 11.3244,-7.70735 15.4317,-14.91677 15.4317,-27.08676 0,-8.14672 -1.2715,-12.68439 -5.1509,-18.38276 -7.3572,-10.80682 -14.9985,-13.7659 -35.5479,-13.7659 -14.6652,0 -18.4867,0.73134 -24.2235,4.63582 -11.3923,7.7535 -15.4318,14.89966 -15.4318,27.2998 0,12.40014 4.0395,19.5463 15.4318,27.2998 5.7754,3.93075 9.5389,4.63581 24.7453,4.63581 15.2063,0 18.9698,-0.70506 24.7453,-4.63581 z m 166.3721,0.52622 c 9.7386,-5.93773 14.9034,-15.58078 14.9034,-27.82602 0,-12.24524 -5.1648,-21.88829 -14.9034,-27.82602 -9.6863,-5.9058 -40.8303,-5.9058 -50.5166,0 -9.7386,5.93773 -14.9033,15.58078 -14.9033,27.82602 0,12.24524 5.1647,21.88829 14.9033,27.82602 9.6863,5.90579 40.8303,5.90579 50.5166,0 z"
   id="path249" /><path
   style="fill:#000000;stroke-width:2.06036"
   d="m 279.17907,1587.3049 c -7.32582,-2.2572 -10.8729,-4.9521 -17.04638,-12.951 l -4.58742,-5.9438 V 1148.3741 728.33803 H 1024 1790.4547 v 418.48807 418.4881 l -4.3149,7.6774 c -2.3732,4.2225 -7.2408,9.4482 -10.8169,11.6125 -6.3651,3.8523 -22.118,3.9422 -748.2324,4.2702 -449.21166,0.2029 -744.16799,-0.416 -747.91143,-1.5694 z m 544.73471,-363.7348 c 36.38948,-81.7471 66.16268,-149.6617 66.16268,-150.9215 0,-1.6579 -38.69921,-2.2905 -140.13228,-2.2905 H 609.8119 l 2.89646,6.6962 c 1.59307,3.6829 26.72226,60.0081 55.84263,125.167 29.1204,65.159 59.51184,133.1766 67.53655,151.1502 l 14.59036,32.6794 3.53661,-6.9249 c 1.94512,-3.8086 33.30981,-73.8088 69.69927,-155.5559 z m -161.15817,0.1657 c -34.31288,-76.9919 -63.60742,-142.9986 -65.09898,-146.6815 l -2.71189,-6.6962 h -74.95325 c -41.22429,0 -74.95326,0.5877 -74.95326,1.306 0,0.7182 6.67262,8.3673 14.82803,16.998 21.20179,22.4372 134.34217,141.2744 160.16094,168.2253 11.9766,12.5018 31.44764,32.8994 43.26901,45.328 38.20424,40.1667 60.51745,62.8348 61.18958,62.1627 0.36128,-0.3613 -27.41728,-63.6503 -61.73018,-140.6423 z m 140.80358,115.461 c 13.02192,-13.6197 41.78048,-43.7524 63.90788,-66.9618 22.12743,-23.2094 58.28678,-61.115 80.35413,-84.2347 88.6168,-92.8429 109.0819,-114.618 109.1126,-116.0969 0.018,-0.8499 -33.5777,-1.5359 -74.65613,-1.5244 l -74.68813,0.021 -14.78432,33.46 c -8.13136,18.4031 -36.25236,81.6726 -62.49109,140.599 -55.30022,124.192 -53.94335,121.0535 -51.95558,120.1748 0.83845,-0.3706 12.17872,-11.8172 25.20064,-25.4368 z m 557.78221,-22.8899 c 2.5261,-1.5757 5.9203,-5.4317 7.5426,-8.5688 1.6223,-3.1372 10.8447,-35.3474 20.4942,-71.5782 9.6495,-36.2308 26.4833,-99.239 37.4084,-140.0182 14.2655,-53.2475 19.5166,-75.9951 18.6317,-80.7118 -1.7857,-9.5187 -13.5811,-19.24693 -23.325,-19.23712 -9.6735,0.0103 -19.646,6.00442 -22.7175,13.65602 -4.0216,10.0182 -76.6233,282.8362 -76.6233,287.9299 0,7.5042 8.599,18.5176 16.5543,21.2023 7.7975,2.6315 14.9131,1.7679 22.0346,-2.6741 z m -58.0938,-39.9769 c 7.1075,-6.6772 10.0597,-16.8517 7.3085,-25.188 -1.4574,-4.4158 -16.6539,-21.1358 -44.4576,-48.9148 -23.2338,-23.213 -42.2434,-42.985 -42.2434,-43.9377 0,-0.9526 18.7751,-20.7257 41.7224,-43.9401 22.9472,-23.2144 42.965,-44.567 44.4839,-47.4501 5.5108,-10.4604 -1.1261,-25.6822 -13.4412,-30.8278 -15.343,-6.4107 -17.0954,-5.1466 -76.7612,55.3724 -30.0983,30.5288 -55.4774,57.5121 -56.3981,59.963 -4.5903,12.2206 -1.4359,16.4681 52.8246,71.1289 28.5271,28.7376 54.6489,54.0536 58.0485,56.2578 8.0944,5.2483 21.9625,4.0666 28.9136,-2.4636 z m 190.1022,3.3061 c 3.06,-1.6166 29.3424,-26.8818 58.4052,-56.1448 54.7448,-55.122 57.318,-58.5228 53.7878,-71.0876 -0.9129,-3.249 -24.0983,-28.3472 -56.3597,-61.0091 -47.0329,-47.6168 -55.8916,-55.6924 -62.4407,-56.921 -10.804,-2.0269 -21.7209,3.6864 -26.7586,14.0039 -6.8331,13.9948 -4.7768,17.1324 42.5353,64.9014 23.5139,23.7409 42.7525,43.9479 42.7525,44.9044 0,0.9566 -18.6373,20.2738 -41.4163,42.9271 -22.7789,22.6534 -42.7458,44.2501 -44.3707,47.9927 -8.8933,20.4826 13.9103,40.9752 33.8652,30.433 z M 587.20322,1054.8653 c 0,-1.7847 -49.86728,-113.1572 -51.45505,-114.91858 -1.32653,-1.47157 -16.41804,16.83372 -74.63442,90.52808 -9.97473,12.6267 -18.13588,23.5208 -18.13588,24.2092 0,0.6884 32.4507,1.2516 72.11267,1.2516 39.66198,0 72.11268,-0.4816 72.11268,-1.0703 z m 294.63179,0.3208 c 0,-0.5567 -56.69363,-53.7781 -77.11647,-72.39334 -1.24322,-1.1332 -13.49463,-12.49095 -27.22532,-25.23944 -13.73068,-12.74849 -25.59765,-23.17907 -26.37101,-23.17907 -1.49656,0 -130.9532,119.36725 -130.9532,120.74715 0,0.4478 58.87485,0.8142 130.833,0.8142 71.95815,0 130.833,-0.3372 130.833,-0.7495 z m 176.84779,-1.2492 c -1.8187,-5.2927 -91.06292,-115.48961 -92.34824,-114.02963 -1.11329,1.2646 -44.6977,98.38823 -50.91221,113.45293 -0.83811,2.0317 14.24549,2.5754 71.44238,2.5754 45.94307,0 72.25317,-0.7322 71.81807,-1.9987 z m -434.45273,-22.7892 c 0.59942,-0.6015 25.13448,-23.317 54.5224,-50.47885 l 53.43252,-49.38515 -91.35588,-0.53675 c -50.24572,-0.29522 -91.68352,-0.20912 -92.08395,0.19132 -0.40045,0.40045 9.58806,23.82108 22.19669,52.04581 12.60864,28.22472 24.70677,55.41942 26.88476,60.43272 l 3.95998,9.115 10.67681,-10.1452 c 5.87226,-5.5798 11.16725,-10.6373 11.76667,-11.2389 z m 302.93909,-39.08331 c 13.81549,-31.16298 25.59165,-57.81892 26.16924,-59.23542 0.83098,-2.03791 -18.23967,-2.57011 -91.37148,-2.54989 l -92.42165,0.0256 12.39798,11.82152 c 15.68834,14.95885 34.32922,32.31139 66.92597,62.3004 14.16499,13.0318 31.3175,28.9764 38.1167,35.4325 6.79919,6.4561 12.97012,11.0919 13.71317,10.3018 0.74305,-0.7901 12.65458,-26.9335 26.47007,-58.09648 z"
   id="path251" /></g>
 <rect
   class="fil2"
   width="2048"
   height="2048"
   id="rect70"
   x="0"
   y="0" />
</svg>
