<?xml version="1.0" encoding="UTF-8" standalone="no"?>
<svg
   width="98"
   height="96"
   version="1.1"
   id="svg443"
   sodipodi:docname="github.svg"
   xmlns:inkscape="http://www.inkscape.org/namespaces/inkscape"
   xmlns:sodipodi="http://sodipodi.sourceforge.net/DTD/sodipodi-0.dtd"
   xmlns="http://www.w3.org/2000/svg"
   xmlns:svg="http://www.w3.org/2000/svg">
  <defs
     id="defs447" />
  <sodipodi:namedview
     id="namedview445"
     pagecolor="#505050"
     bordercolor="#eeeeee"
     borderopacity="1"
     inkscape:showpageshadow="0"
     inkscape:pageopacity="0"
     inkscape:pagecheckerboard="0"
     inkscape:deskcolor="#505050"
     showgrid="false" />
  <path
     fill-rule="evenodd"
     clip-rule="evenodd"
     d="M 48.854,0 C 21.839,0 0,22 0,49.217 c 0,21.756 13.993,40.172 33.405,46.69 2.427,0.49 3.316,-1.059 3.316,-2.362 0,-1.141 -0.08,-5.052 -0.08,-9.127 -13.59,2.934 -16.42,-5.867 -16.42,-5.867 -2.184,-5.704 -5.42,-7.17 -5.42,-7.17 -4.448,-3.015 0.324,-3.015 0.324,-3.015 4.934,0.326 7.523,5.052 7.523,5.052 4.367,7.496 11.404,5.378 14.235,4.074 0.404,-3.178 1.699,-5.378 3.074,-6.6 -10.839,-1.141 -22.243,-5.378 -22.243,-24.283 0,-5.378 1.94,-9.778 5.014,-13.2 -0.485,-1.222 -2.184,-6.275 0.486,-13.038 0,0 4.125,-1.304 13.426,5.052 a 46.97,46.97 0 0 1 12.214,-1.63 c 4.125,0 8.33,0.571 12.213,1.63 9.302,-6.356 13.427,-5.052 13.427,-5.052 2.67,6.763 0.97,11.816 0.485,13.038 3.155,3.422 5.015,7.822 5.015,13.2 0,18.905 -11.404,23.06 -22.324,24.283 1.78,1.548 3.316,4.481 3.316,9.126 0,6.6 -0.08,11.897 -0.08,13.526 0,1.304 0.89,2.853 3.316,2.364 C 83.634,89.388 97.627,70.973 97.627,49.217 97.707,22 75.788,0 48.854,0 Z"
     fill="#24292f"
     id="path441" />
  <path
     style="fill:#000000;stroke-width:0.0965795"
     d="M 33.524443,95.881877 C 33.397896,95.857934 32.679266,95.607483 31.927488,95.325315 26.638515,93.340191 21.963926,90.604366 17.475527,86.867242 15.907634,85.561785 12.877426,82.516949 11.568507,80.931705 7.686783,76.230516 4.8799077,71.338411 2.9054736,65.832899 1.304754,61.369452 0.27928937,56.140016 0.13767813,51.71831 0.10960832,50.841851 0.0721552,49.955762 0.05444897,49.749224 -0.00323607,49.076344 0.18104542,45.233885 0.33982727,43.798793 1.5465713,32.892079 6.273753,22.792741 13.838761,14.959135 24.494234,3.9253373 39.34514,-1.3736997 54.663984,0.39205381 c 3.6778,0.42392808 8.098203,1.52349829 11.637827,2.89489619 8.210491,3.181086 15.534605,8.644349 20.97069,15.642627 5.580981,7.184814 8.992356,15.641101 10.036904,24.879993 0.243651,2.155005 0.296654,7.215332 0.09954,9.502301 -1.239769,14.383566 -8.492224,27.32736 -20.000489,35.695803 -1.944552,1.414016 -2.875477,2.014513 -4.877264,3.146101 -3.156616,1.7844 -7.562738,3.650092 -8.897848,3.767633 -1.098827,0.09674 -1.966608,-0.335229 -2.40769,-1.19851 L 60.98994,94.261569 v -8.160965 c 0,-7.496778 -0.01425,-8.231708 -0.17512,-9.030181 -0.279653,-1.388064 -0.613891,-2.444991 -1.077345,-3.406764 -0.494049,-1.025266 -0.808783,-1.507589 -1.446864,-2.21729 -0.52657,-0.585672 -0.645625,-0.508121 1.154057,-0.751736 8.501246,-1.150779 14.32673,-4.504421 17.463454,-10.053445 1.84945,-3.271772 2.792195,-6.969276 3.070843,-12.04403 0.32402,-5.901084 -1.066448,-10.568764 -4.305035,-14.451626 l -0.616448,-0.739081 0.270939,-0.912481 c 0.785696,-2.646107 0.870885,-5.566097 0.251404,-8.61726 -0.217345,-1.070502 -0.831839,-3.148983 -1.020021,-3.450151 -0.134865,-0.215839 -2.21715,-0.194797 -3.23586,0.0327 -2.631543,0.587672 -5.703181,1.980527 -8.977628,4.070964 l -1.309771,0.836171 -0.989097,-0.244721 C 52.91525,23.357043 45.394034,23.321498 38.090717,25.017907 l -1.469709,0.341382 -1.095212,-0.716941 c -4.169515,-2.729423 -7.973449,-4.257588 -10.898029,-4.378096 -0.928525,-0.03826 -1.24383,-0.01969 -1.365712,0.08043 -0.170089,0.139717 -0.64492,1.481832 -0.94776,2.678859 -0.354963,1.403052 -0.502164,2.481946 -0.555733,4.07321 -0.07302,2.169004 0.154455,4.021529 0.69205,5.636019 l 0.222559,0.66838 -0.496986,0.587153 c -1.080949,1.277068 -2.208965,3.08161 -2.849347,4.558239 -1.250098,2.882547 -1.729881,5.638117 -1.620756,9.308593 0.328141,11.037225 4.568895,17.834957 13.151061,21.080539 2.086825,0.789191 4.742776,1.431418 7.29175,1.763197 0.663984,0.08642 1.311466,0.177945 1.438847,0.203376 l 0.231604,0.04624 -0.335661,0.356745 c -1.20249,1.278021 -2.007886,2.955675 -2.443154,5.089138 l -0.216746,1.062374 -0.622853,0.26068 c -3.592849,1.5037 -7.183027,1.341274 -9.979602,-0.451496 -1.275318,-0.817554 -2.162306,-1.784418 -3.501879,-3.817232 -2.199628,-3.337956 -4.847599,-5.068177 -7.74963,-5.063716 -1.528379,0.0023 -2.234027,0.386552 -2.07124,1.12772 0.09771,0.444871 0.925416,1.261766 1.98236,1.95647 0.510825,0.335753 1.200814,0.862322 1.533309,1.170153 1.36954,1.267953 2.727911,3.354247 3.579178,5.497189 0.665415,1.675085 1.283678,2.587509 2.593595,3.827593 1.749787,1.656505 4.12856,2.676562 6.967782,2.987901 1.740729,0.190882 4.812441,0.0081 6.595376,-0.392535 0.219954,-0.04942 0.407006,-0.08143 0.415672,-0.07114 0.0087,0.01029 0.03157,2.191753 0.05091,4.847689 0.03448,4.737194 0.03131,4.837234 -0.167197,5.263582 -0.495346,1.063908 -1.575816,1.537551 -2.925119,1.282279 z"
     id="path449" />
</svg>
