<?xml version="1.0" encoding="UTF-8" standalone="no"?>
<svg
   width="2500"
   height="2051"
   viewBox="0 0 256 210"
   preserveAspectRatio="xMidYMid"
   version="1.1"
   id="svg700"
   sodipodi:docname="terminal.svg"
   xmlns:inkscape="http://www.inkscape.org/namespaces/inkscape"
   xmlns:sodipodi="http://sodipodi.sourceforge.net/DTD/sodipodi-0.dtd"
   xmlns="http://www.w3.org/2000/svg"
   xmlns:svg="http://www.w3.org/2000/svg">
  <defs
     id="defs704" />
  <sodipodi:namedview
     id="namedview702"
     pagecolor="#505050"
     bordercolor="#eeeeee"
     borderopacity="1"
     inkscape:showpageshadow="0"
     inkscape:pageopacity="0"
     inkscape:pagecheckerboard="0"
     inkscape:deskcolor="#505050"
     showgrid="false" />
  <rect
     width="235.52"
     height="209.342"
     rx="4.6000047"
     id="rect696"
     x="10.24"
     y="0"
     style="stroke-width:0.959169" />
  <path
     d="m 38.224,26.8728 c -0.855,-0.856 -1.888,-1.284 -3.098,-1.284 -1.21,0 -2.246,0.432 -3.11,1.296 -0.852,0.852 -1.284,1.888 -1.284,3.098 0,1.21 0.432,2.247 1.284,3.098 l 13.442,13.442 -13.43,13.43 c -0.864,0.864 -1.296,1.9 -1.308,3.11 0.012,1.21 0.444,2.247 1.296,3.098 0.864,0.852 1.9,1.284 3.098,1.296 1.222,0 2.259,-0.432 3.123,-1.296 l 14.935,-14.947 c 3.135,-3.123 3.135,-6.258 0,-9.394 z m 58.545,33.104 c -0.864,-0.864 -1.913,-1.296 -3.135,-1.296 v -0.006 H 64.8 v 0.006 c -1.222,0 -2.26,0.432 -3.123,1.296 -0.864,0.864 -1.296,1.901 -1.296,3.123 0,1.222 0.432,2.271 1.296,3.135 0.864,0.864 1.9,1.296 3.123,1.296 v -0.006 h 28.833 v 0.006 c 1.222,0 2.27,-0.432 3.135,-1.296 0.864,-0.864 1.296,-1.913 1.296,-3.135 0,-1.222 -0.432,-2.259 -1.296,-3.123 z"
     fill="#ffffff"
     id="path698" />
</svg>
