<?xml version="1.0" encoding="utf-8"?>
<!-- Generator: Adobe Illustrator 18.0.0, SVG Export Plug-In . SVG Version: 6.00 Build 0)  -->
<!DOCTYPE svg PUBLIC "-//W3C//DTD SVG 1.1//EN" "http://www.w3.org/Graphics/SVG/1.1/DTD/svg11.dtd">
<svg version="1.1" id="Icon_Set" xmlns="http://www.w3.org/2000/svg" xmlns:xlink="http://www.w3.org/1999/xlink" x="0px" y="0px"
	 viewBox="0 0 256 256" style="enable-background:new 0 0 256 256;" xml:space="preserve">
<style type="text/css">
	.st0{fill:#484771;}
	.st1{fill:#F1C48B;}
	.st2{fill:#D5E6F7;}
	.st3{fill:#A0D1F2;}
	.st4{fill:#FD919F;}
	.st5{fill:#E0667D;}
	.st6{fill:#504774;}
	.st7{fill:#7BACF1;}
	.st8{fill:#FFFFFF;}
	.st9{fill:#D4E7F8;}
	.st10{fill:#A3D0F1;}
	.st11{fill:#4C4372;}
	.st12{fill:#7BABF3;}
	.st13{fill:#FD919E;}
	.st14{fill:#D3E6F8;}
	.st15{fill:#E8677D;}
	.st16{fill:#A4CFF2;}
</style>
<g>
	<g>
		<circle class="st1" cx="128" cy="128" r="104.245"/>
	</g>
	<g>
		<rect x="52.659" y="84.228" class="st10" width="150.683" height="102.568"/>
	</g>
	<g>
		<rect x="184.506" y="84.228" class="st7" width="18.835" height="102.568"/>
	</g>
	<g>
		<path class="st11" d="M203.342,189.796H52.658c-1.657,0-3-1.343-3-3V84.228c0-1.657,1.343-3,3-3h150.684c1.657,0,3,1.343,3,3
			v102.568C206.342,188.453,204.999,189.796,203.342,189.796z M55.658,183.796h144.684V87.228H55.658V183.796z"/>
	</g>
	<g>
		<polygon class="st7" points="203.341,186.796 128,109.87 52.659,186.796 		"/>
	</g>
	<g>
		<path class="st11" d="M203.342,189.796H52.658c-1.208,0-2.298-0.725-2.766-1.838s-0.223-2.398,0.622-3.262l75.342-76.926
			c1.129-1.152,3.158-1.152,4.287,0l75.342,76.926c0.845,0.863,1.09,2.148,0.622,3.262S204.55,189.796,203.342,189.796z
			 M59.796,183.796h136.408L128,114.157L59.796,183.796z"/>
	</g>
	<g>
		<polygon class="st2" points="52.659,84.228 128,148.704 203.341,84.228 		"/>
	</g>
	<g>
		<path class="st11" d="M128,151.704c-0.694,0-1.389-0.24-1.95-0.721L50.708,86.507c-0.954-0.816-1.299-2.141-0.864-3.319
			c0.436-1.178,1.559-1.96,2.814-1.96h150.684c1.256,0,2.379,0.782,2.814,1.96c0.435,1.179,0.09,2.503-0.864,3.319l-75.342,64.477
			C129.389,151.464,128.694,151.704,128,151.704z M60.777,87.228L128,144.756l67.223-57.528H60.777z"/>
	</g>
	<g>
		<path class="st4" d="M154.011,104.036h-52.023c-4.648,0-8.417,3.768-8.417,8.417v49.186c0,4.648,3.768,8.417,8.417,8.417h52.023
			c4.648,0,8.417-3.768,8.417-8.417v-49.186C162.428,107.804,158.66,104.036,154.011,104.036z"/>
	</g>
	<g>
		<path class="st5" d="M154.011,104.036h-14.738c4.648,0,8.417,3.768,8.417,8.417v49.187c0,4.648-3.768,8.417-8.417,8.417h14.738
			c4.648,0,8.417-3.768,8.417-8.417v-49.187C162.428,107.804,158.66,104.036,154.011,104.036z"/>
	</g>
	<g>
		<path class="st2" d="M147.002,150.401L128,161.372l-19.002-10.971v-35.935l0,0c11.892,6.27,26.112,6.27,38.005,0l0,0V150.401z"/>
	</g>
	<g>
		<path class="st6" d="M134.225,146.901l-2.583-8.364c1.766-1.22,2.893-3.299,2.768-5.635c-0.174-3.263-2.887-5.935-6.152-6.064
			c-3.663-0.144-6.678,2.783-6.678,6.415c0,2.192,1.101,4.126,2.777,5.284l-2.583,8.364c-0.285,0.922,0.405,1.857,1.37,1.857h9.71
			C133.821,148.758,134.51,147.823,134.225,146.901z"/>
	</g>
	<g>
		<path class="st6" d="M154.012,173.056h-52.023c-6.295,0-11.416-5.122-11.416-11.417v-49.187c0-6.295,5.121-11.416,11.416-11.416
			h52.023c6.295,0,11.416,5.121,11.416,11.416v49.187C165.428,167.934,160.307,173.056,154.012,173.056z M101.988,107.036
			c-2.986,0-5.416,2.43-5.416,5.416v49.187c0,2.987,2.43,5.417,5.416,5.417h52.023c2.986,0,5.416-2.43,5.416-5.417v-49.187
			c0-2.986-2.43-5.416-5.416-5.416H101.988z"/>
	</g>
	<g>
		<path class="st6" d="M108.31,107.036c-1.657,0-3-1.343-3-3V82.69C105.31,70.179,115.488,60,128,60s22.69,10.179,22.69,22.69
			v21.345c0,1.657-1.343,3-3,3s-3-1.343-3-3V82.69c0-9.203-7.487-16.69-16.69-16.69s-16.69,7.487-16.69,16.69v21.346
			C111.31,105.693,109.967,107.036,108.31,107.036z"/>
	</g>
	<g>
		<path class="st6" d="M128,164.372c-0.518,0-1.036-0.134-1.5-0.402l-19.002-10.972c-0.929-0.535-1.5-1.526-1.5-2.598v-35.936
			c0-1.052,0.55-2.025,1.45-2.568c0.901-0.543,2.021-0.574,2.949-0.085c5.405,2.85,11.492,4.356,17.603,4.356
			s12.197-1.507,17.603-4.356c0.929-0.489,2.049-0.458,2.949,0.085s1.45,1.517,1.45,2.568V150.4c0,1.071-0.571,2.063-1.5,2.598
			L129.5,163.97C129.036,164.238,128.518,164.372,128,164.372z M111.998,148.668l16.002,9.24l16.002-9.24v-29.535
			c-10.168,3.988-21.836,3.988-32.004,0V148.668z"/>
	</g>
</g>
</svg>
