<?xml version="1.0" encoding="iso-8859-1"?>
<!-- Generator: Adobe Illustrator 19.0.0, SVG Export Plug-In . SVG Version: 6.00 Build 0)  -->
<svg xmlns="http://www.w3.org/2000/svg" xmlns:xlink="http://www.w3.org/1999/xlink" version="1.1" id="Capa_1" x="0px" y="0px" viewBox="0 0 512 512" style="enable-background:new 0 0 512 512;" xml:space="preserve">
<path style="fill:#474B63;" d="M504.51,407.813V176.579c-19.382,0-105.903,0-116.031,0L152.12,416.747  c-5.572,5.662-13.184,8.85-21.129,8.85h355.732C496.546,425.598,504.51,417.636,504.51,407.813z"/>
<path style="fill:#3E4356;" d="M419.281,176.579h-30.802L152.12,416.747c-5.572,5.662-13.184,8.85-21.129,8.85h43.221  L419.281,176.579z"/>
<path style="fill:#6EDCF9;" d="M474.867,119.292h-98.808c-7.946,0-15.557,3.19-21.129,8.853L120.572,366.313H37.147  c-16.373,0-29.643,13.272-29.643,29.642c0,16.374,13.27,29.643,29.643,29.643h95.844c7.944,0,15.557-3.188,21.129-8.85  l234.359-238.17c12.973,0,102.965,0,116.031,0v-29.643C504.51,132.563,491.24,119.292,474.867,119.292z"/>
<path style="fill:#37CAE2;" d="M504.504,148.701c-5.822,0-110.022,0-115.685,0c-8.061,0-13.632,3.24-15.421,5.507l0,0  L144.456,386.871c-5.572,5.662-13.184,8.851-21.129,8.851H27.483c-7.275,0-13.935-2.625-19.093-6.973  c-4.688,18.767,9.521,36.85,28.756,36.85h95.844c7.944,0,15.557-3.188,21.129-8.85l234.359-238.17c12.973,0,102.965,0,116.031,0  C504.51,142.912,504.511,149.795,504.504,148.701z"/>
<path d="M176.372,152.057l47.725-47.726v36.869c0,4.141,3.356,7.497,7.497,7.497c4.141,0,7.497-3.356,7.497-7.497  c0-59.028,0.195-55.799-0.489-57.61c-0.827-2.196-2.622-3.864-4.842-4.533c-1.395-0.418,1.839-0.321-57.135-0.321  c-4.141,0-7.497,3.356-7.497,7.497s3.356,7.497,7.497,7.497h36.868l-47.724,47.725c-2.928,2.929-2.928,7.675,0,10.603  C168.698,154.985,173.444,154.986,176.372,152.057z"/>
<path d="M77.583,244.289c1.589,0.661,3.12,0.575,2.877,0.575c3.326,0,39.857,0,54.966,0c4.141,0,7.497-3.356,7.497-7.497  c0-4.141-3.356-7.497-7.497-7.497H98.56l46.153-46.153c2.928-2.929,2.928-7.675,0-10.603c-2.929-2.927-7.675-2.927-10.603,0  l-46.151,46.151L87.956,182.4c0-4.141-3.357-7.497-7.497-7.497c-4.141,0-7.497,3.357-7.497,7.497l0.002,54.921  C72.946,240.21,74.641,243.066,77.583,244.289z"/>
<path d="M474.86,111.974h-20.662V93.731h28.815c4.141,0,7.497-3.356,7.497-7.497s-3.356-7.497-7.497-7.497H348.214  c-2.011,0-3.937,0.809-5.348,2.242L102.667,325.401H31.705c-4.141,0-7.497,3.356-7.497,7.497c0,4.141,3.356,7.497,7.497,7.497h8.065  v18.599h-2.63C16.661,358.995,0,375.655,0,396.133c0,20.479,16.661,37.14,37.14,37.14c2.274,0,373.253,0,381.257,0  c4.141,0,7.497-3.356,7.497-7.497s-3.356-7.497-7.497-7.497H163.299l228.312-232.026h105.394v221.738  c0,5.673-4.615,10.288-10.289,10.288h-33.333c-4.141,0-7.497,3.356-7.497,7.497s3.356,7.497,7.497,7.497h33.333  c13.941,0,25.283-11.342,25.283-25.282c0-9.684,0-246.816,0-258.878C512,128.634,495.339,111.974,474.86,111.974z M439.204,111.974  h-35.398V93.731h35.398V111.974z M54.764,340.395h35.398v18.599H54.764V340.395z M383.128,173.497l-234.359,238.17  c-4.135,4.201-9.889,6.611-15.785,6.611H37.14c-12.211,0-22.145-9.934-22.145-22.145s9.934-22.145,22.145-22.145  c90.339,0,85.719,0.862,88.769-2.238l173.259-176.076c2.904-2.952,2.866-7.698-0.085-10.602c-2.951-2.904-7.698-2.865-10.602,0.085  L117.424,358.995h-12.266v-18.599c2.13,0,4.147-0.356,6.002-2.242L351.357,93.731h37.455v18.243  c-13.448,0-26.799-1.543-39.231,11.092l-36.559,37.154c-2.904,2.952-2.866,7.698,0.085,10.602c2.951,2.904,7.698,2.866,10.602-0.085  l36.559-37.154c4.136-4.203,9.89-6.614,15.785-6.614h98.808c12.211,0,22.145,9.934,22.145,22.145v22.145  C379.201,171.259,386.218,170.355,383.128,173.497z"/>
<g>
</g>
<g>
</g>
<g>
</g>
<g>
</g>
<g>
</g>
<g>
</g>
<g>
</g>
<g>
</g>
<g>
</g>
<g>
</g>
<g>
</g>
<g>
</g>
<g>
</g>
<g>
</g>
<g>
</g>
</svg>
