<svg id="ART" xmlns="http://www.w3.org/2000/svg" xmlns:xlink="http://www.w3.org/1999/xlink" viewBox="0 0 48 48"><defs><style>.cls-1{fill:url(#linear-gradient);}.cls-2{fill:url(#linear-gradient-2);}.cls-3{fill:url(#linear-gradient-3);}.cls-4{fill:url(#linear-gradient-4);}.cls-5{fill:url(#linear-gradient-5);}.cls-6{fill:url(#linear-gradient-6);}.cls-7{fill:url(#linear-gradient-7);}.cls-8{fill:url(#linear-gradient-8);}.cls-9{fill:url(#linear-gradient-9);}.cls-10{fill:url(#linear-gradient-10);}.cls-11{fill:url(#linear-gradient-11);}.cls-12{fill:url(#linear-gradient-12);}.cls-13{fill:url(#linear-gradient-13);}.cls-14{fill:url(#linear-gradient-14);}.cls-15{fill:url(#linear-gradient-15);}.cls-16{fill:url(#linear-gradient-16);}.cls-17{fill:url(#linear-gradient-17);}</style><linearGradient id="linear-gradient" x1="24" y1="32.83" x2="24" y2="-3.97" gradientUnits="userSpaceOnUse"><stop offset="0" stop-color="#f3c57a"/><stop offset="0.49" stop-color="#f39369"/><stop offset="1" stop-color="#e94867"/></linearGradient><linearGradient id="linear-gradient-2" x1="16.97" y1="52.17" x2="16.97" y2="3.24" xlink:href="#linear-gradient"/><linearGradient id="linear-gradient-3" x1="24.39" y1="44.33" x2="24.39" y2="-4.09" xlink:href="#linear-gradient"/><linearGradient id="linear-gradient-4" x1="31.04" y1="52.17" x2="31.04" y2="3.24" xlink:href="#linear-gradient"/><linearGradient id="linear-gradient-5" x1="24" y1="52.5" x2="24" y2="-29.55" gradientUnits="userSpaceOnUse"><stop offset="0" stop-color="#273a9b"/><stop offset="0.56" stop-color="#202f65"/><stop offset="1" stop-color="#021e2f"/></linearGradient><linearGradient id="linear-gradient-6" x1="24" y1="11.15" x2="24" y2="45.16" gradientUnits="userSpaceOnUse"><stop offset="0" stop-color="#fff"/><stop offset="0.52" stop-color="#cce2e6"/><stop offset="1" stop-color="#8fa1bb"/></linearGradient><linearGradient id="linear-gradient-7" x1="24" y1="35.64" x2="24" y2="11.27" xlink:href="#linear-gradient-6"/><linearGradient id="linear-gradient-8" x1="24" y1="33.56" x2="24" y2="20.03" xlink:href="#linear-gradient-6"/><linearGradient id="linear-gradient-9" x1="24" y1="18.25" x2="24" y2="28.78" xlink:href="#linear-gradient-5"/><linearGradient id="linear-gradient-10" x1="24.01" y1="30.52" x2="24.01" y2="15.88" xlink:href="#linear-gradient-5"/><linearGradient id="linear-gradient-11" x1="24" y1="28.9" x2="24" y2="23.09" xlink:href="#linear-gradient-5"/><linearGradient id="linear-gradient-12" x1="21.78" y1="27.57" x2="21.78" y2="22.02" xlink:href="#linear-gradient"/><linearGradient id="linear-gradient-13" x1="26.23" y1="27.57" x2="26.23" y2="22.02" xlink:href="#linear-gradient"/><linearGradient id="linear-gradient-14" x1="21.78" y1="25.66" x2="21.78" y2="20.43" xlink:href="#linear-gradient"/><linearGradient id="linear-gradient-15" x1="26.23" y1="25.66" x2="26.23" y2="20.43" xlink:href="#linear-gradient"/><linearGradient id="linear-gradient-16" x1="24" y1="26.71" x2="24" y2="22.94" xlink:href="#linear-gradient"/><linearGradient id="linear-gradient-17" x1="24" y1="28.6" x2="24" y2="22.84" xlink:href="#linear-gradient"/></defs><title>privacy, hacked, eye, iris, shield, safety</title><path class="cls-1" d="M30.09,7.69a25.59,25.59,0,0,1-5.21-2.5,1.64,1.64,0,0,0-1.76,0,25.59,25.59,0,0,1-5.21,2.5A23.7,23.7,0,0,1,9.5,9.11a1.67,1.67,0,0,0-1.75,1.65V28a13.25,13.25,0,0,0,6.63,11.48l3.21,1.86a12.82,12.82,0,0,0,12.82,0l3.21-1.86A13.25,13.25,0,0,0,40.26,28V10.76a1.67,1.67,0,0,0-1.75-1.65A23.7,23.7,0,0,1,30.09,7.69Z"/><path class="cls-2" d="M9.94,24V35.3a13.24,13.24,0,0,0,4.44,4.19l3.21,1.86A12.82,12.82,0,0,0,24,43.06V24Z"/><path class="cls-3" d="M38.51,9.11h-.83a24.3,24.3,0,0,1-7.59-1.42,25.59,25.59,0,0,1-5.21-2.5,1.46,1.46,0,0,0-1.63,0A25.59,25.59,0,0,1,18,7.69a24.32,24.32,0,0,1-7.58,1.43H9.6a1.67,1.67,0,0,0-1.07.38l9.56.62A6.32,6.32,0,0,1,24,16.42V43.06a12.82,12.82,0,0,0,6.41-1.72l3.21-1.86A13.25,13.25,0,0,0,40.26,28V10.76A1.67,1.67,0,0,0,38.51,9.11Z"/><path class="cls-4" d="M38.07,9.1a23.92,23.92,0,0,1-8-1.41,25.59,25.59,0,0,1-5.21-2.5A1.64,1.64,0,0,0,24,4.94h0V24H38.07Z"/><path class="cls-5" d="M40.16,7.57H39.4A26.63,26.63,0,0,1,30.72,6,28.24,28.24,0,0,1,25,3.24a1.81,1.81,0,0,0-1.94,0A28.24,28.24,0,0,1,17.29,6,26.63,26.63,0,0,1,8.61,7.58H7.93A1.84,1.84,0,0,0,6.07,9.39v19a14.63,14.63,0,0,0,7.31,12.67l3.55,2a14.15,14.15,0,0,0,14.15,0l3.55-2a14.62,14.62,0,0,0,7.31-12.67v-19A1.83,1.83,0,0,0,40.16,7.57ZM35.94,28.43a8.63,8.63,0,0,1-4.31,7.47l-3.55,2a8.15,8.15,0,0,1-8.15,0l-3.55-2a8.63,8.63,0,0,1-4.31-7.47V15.33a2.28,2.28,0,0,1,1.86-2.25,35.18,35.18,0,0,0,5.34-1.42,35.56,35.56,0,0,0,3.82-1.59,2.06,2.06,0,0,1,1.82,0,35.56,35.56,0,0,0,3.82,1.59,35.18,35.18,0,0,0,5.34,1.42,2.28,2.28,0,0,1,1.86,2.25Z"/><path class="cls-6" d="M24,16.44A13.26,13.26,0,0,0,12,24,13.25,13.25,0,0,0,36,24,13.26,13.26,0,0,0,24,16.44Z"/><path class="cls-7" d="M24,19.85a13.23,13.23,0,0,0-11,5.86,13.23,13.23,0,0,0,22,0A13.23,13.23,0,0,0,24,19.85Z"/><path class="cls-8" d="M20,30.95a13.18,13.18,0,0,0,8,0V24H20Z"/><path class="cls-9" d="M25.69,19.48h-3c-2.31,0-4,1.43-4.12,3.34a3.61,3.61,0,0,0,2.19,3.6.86.86,0,0,1,.51.79V28c0,.35.2.56.45.56H22a.45.45,0,0,0,.45-.45h0a.45.45,0,0,1,.9,0h0a.45.45,0,0,0,.45.45h.34a.45.45,0,0,0,.45-.45h0a.45.45,0,0,1,.9,0h0a.45.45,0,0,0,.45.45h.28a.45.45,0,0,0,.45-.45v-.85a.86.86,0,0,1,.51-.8,3.61,3.61,0,0,0,2.19-3.6A3.7,3.7,0,0,0,25.69,19.48Z"/><path class="cls-10" d="M27.26,26.41a3.61,3.61,0,0,0,2.1-2.67,3.72,3.72,0,0,0-3.67-2.93h-.17a4.54,4.54,0,0,0-1.92.36,1.41,1.41,0,0,1-.6.13h-.09a1.43,1.43,0,0,1-2.33.59,1.38,1.38,0,0,1-.93.06,3.37,3.37,0,0,0-1,1.84,3.61,3.61,0,0,0,2.1,2.64.88.88,0,0,1,.54.81V28c0,.35.2.56.45.56H22a.45.45,0,0,0,.45-.45.45.45,0,0,1,.9,0,.45.45,0,0,0,.45.45h.34a.45.45,0,0,0,.45-.45.45.45,0,0,1,.9,0,.45.45,0,0,0,.45.45h.28a.45.45,0,0,0,.45-.45v-.85A.88.88,0,0,1,27.26,26.41Z"/><path class="cls-11" d="M23.37,28a.43.43,0,0,1,0,.08.45.45,0,0,0,.45.45h.34a.45.45,0,0,0,.45-.45.43.43,0,0,1,0-.08V25.81H23.37Z"/><circle class="cls-12" cx="21.78" cy="24.47" r="0.85"/><circle class="cls-13" cx="26.23" cy="24.47" r="0.85"/><path class="cls-14" d="M21.78,24.05a.85.85,0,0,0-.82.63.85.85,0,0,0,1.64,0A.85.85,0,0,0,21.78,24.05Z"/><path class="cls-15" d="M26.23,24.05a.85.85,0,0,0-.82.63.85.85,0,0,0,1.64,0A.85.85,0,0,0,26.23,24.05Z"/><path class="cls-16" d="M24.34,26l-.08,0a1.35,1.35,0,0,0-.51,0l-.08,0a.25.25,0,0,1-.25-.4l.38-.53a.25.25,0,0,1,.41,0l.38.53A.25.25,0,0,1,24.34,26Z"/><path class="cls-17" d="M23.43,25.94l.37-.51a.25.25,0,0,1,.41,0l.37.51a.24.24,0,0,0,0-.3l-.38-.53a.25.25,0,0,0-.41,0l-.38.53A.24.24,0,0,0,23.43,25.94Z"/></svg>