<?xml version="1.0" encoding="utf-8"?>
<!-- Generator: Adobe Illustrator 24.0.0, SVG Export Plug-In . SVG Version: 6.00 Build 0)  -->
<svg version="1.1" xmlns="http://www.w3.org/2000/svg" xmlns:xlink="http://www.w3.org/1999/xlink" x="0px" y="0px"
	 viewBox="0 0 256 256" enable-background="new 0 0 256 256" xml:space="preserve">
<g id="Layer_2" display="none">
	<rect x="-428" y="-3816" display="inline" fill="#FFFFFF" width="1786" height="5896"/>
</g>
<g id="Layer_1">
	<g>
		<path fill="#FC5D3D" d="M128,155.622L128,155.622c-4.418,0-8-3.582-8-8c0-11.417,6.127-20.484,14.9-25.241
			c5.024-2.726,7.926-7.975,7.571-13.698c-0.431-6.952-6.162-12.871-13.098-13.498c-6.978-0.631-12.831,3.62-14.968,9.364
			c-2.095,5.63-8.433,5.074-7.433,5.074c-5.52,0-9.468-5.496-7.534-10.666c1.628-4.354,4.241-8.331,7.678-11.562
			c19.406-18.234,49.813-4.066,51.325,20.296c0.734,11.825-5.512,23.112-15.911,28.754c-7.477,4.056-6.529,12.178-6.529,11.178
			C136,152.041,132.418,155.622,128,155.622z"/>
		<circle fill="#FC5D3D" cx="128" cy="173.254" r="7"/>
		<path fill="#72C2E9" d="M248,139.086v-22c0-2.761-2.239-5-5-5h-20.34c-2.43-14.59-8.17-28.06-16.41-39.62l14.384-14.385
			c1.953-1.953,1.953-5.118,0-7.071l-15.559-15.559c-1.953-1.953-5.118-1.953-7.071,0L183.62,49.836
			c-11.56-8.24-25.03-13.98-39.62-16.41v-20.34c0-2.761-2.239-5-5-5h-22c-2.761,0-5,2.239-5,5v20.34
			c-14.59,2.43-28.06,8.17-39.62,16.41L57.996,35.452c-1.953-1.953-5.118-1.953-7.071,0L35.366,51.011
			c-1.953,1.953-1.953,5.118,0,7.071L49.75,72.466c-8.24,11.56-13.98,25.03-16.41,39.62H13c-2.761,0-5,2.239-5,5v22
			c0,2.761,2.239,5,5,5h20.34c2.43,14.59,8.17,28.06,16.41,39.62l-14.384,14.385c-1.953,1.953-1.953,5.118,0,7.071l15.559,15.559
			c1.953,1.953,5.118,1.953,7.071,0l14.385-14.384c11.56,8.24,25.03,13.98,39.62,16.41v20.34c0,2.761,2.239,5,5,5h22
			c2.761,0,5-2.239,5-5v-20.34c14.59-2.43,28.06-8.17,39.62-16.41l14.385,14.384c1.953,1.953,5.118,1.953,7.071,0l15.559-15.559
			c1.953-1.953,1.953-5.118,0-7.071l-14.384-14.385c8.24-11.56,13.98-25.03,16.41-39.62H243
			C245.761,144.086,248,141.848,248,139.086z M128,200.086c-39.769,0-72-32.239-72-72c0-39.727,32.196-72,72-72
			c39.777,0,72,32.248,72,72C200,167.808,167.809,200.086,128,200.086z"/>
		<path fill="#C5E5FE" d="M128,214.586c-17.052,0-33.54-4.947-47.68-14.308c-1.151-0.763-1.467-2.313-0.705-3.465
			c0.762-1.15,2.313-1.467,3.464-0.705c13.32,8.817,28.853,13.478,44.92,13.478c71.886,0,109.194-87.562,57.63-139.129
			c-0.977-0.977-0.977-2.559,0-3.535c0.976-0.977,2.56-0.977,3.535,0C243.842,121.598,204.372,214.586,128,214.586z M72.092,194.095
			c-1.803-1.531-3.572-3.161-5.256-4.844c-0.977-0.977-0.977-2.56-0.001-3.536c0.976-0.976,2.56-0.976,3.535-0.001
			c1.589,1.589,3.257,3.126,4.958,4.57c1.052,0.894,1.181,2.471,0.288,3.523C74.722,194.86,73.145,194.99,72.092,194.095z"/>
		<g>
			<path d="M40.06,166.736c1.28-0.52,1.89-1.989,1.37-3.26c0,0,0-0.01-0.01-0.01c-0.51-1.24-2-1.87-3.25-1.36
				c-1.243,0.501-1.903,1.951-1.37,3.25c0,0.011,0,0.011,0,0.011C37.298,166.579,38.656,167.28,40.06,166.736z"/>
			<path d="M243,109.586h-18.25c-2.5-13.25-7.63-25.641-15.25-36.83l12.9-12.91c2.947-2.948,2.91-7.699,0-10.61l-15.56-15.55
				c-2.902-2.921-7.675-2.945-10.6,0l-12.91,12.9c-11.19-7.62-23.59-12.75-36.83-15.25v-18.25c0-4.141-3.37-7.5-7.5-7.5h-22
				c-4.13,0-7.5,3.359-7.5,7.5v18.25c-13.24,2.5-25.64,7.63-36.83,15.25l-12.91-12.9c-2.902-2.921-7.675-2.945-10.6,0L33.6,49.246
				c-2.878,2.857-2.976,7.622,0,10.6l12.9,12.91c-7.62,11.189-12.75,23.58-15.25,36.83H13c-4.14,0-7.5,3.37-7.5,7.5v22
				c0,4.14,3.36,7.5,7.5,7.5h18.25c0.57,3.05,1.3,6.109,2.17,9.1c0.38,1.28,1.8,2.08,3.1,1.7c1.32-0.39,2.09-1.78,1.7-3.1
				c-1-3.471-1.82-7.04-2.41-10.61c-0.21-1.21-1.24-2.09-2.47-2.09H13c-1.38,0-2.5-1.12-2.5-2.5v-22c0-1.38,1.12-2.5,2.5-2.5h20.34
				c1.23,0,2.26-0.88,2.47-2.09c2.29-13.801,7.82-27.141,15.98-38.58c0.71-1,0.59-2.351-0.27-3.221l-14.39-14.38
				c-0.972-0.991-0.98-2.539,0-3.54l15.56-15.56c0.993-0.972,2.537-0.981,3.54,0l14.38,14.39c0.84,0.84,2.25,0.96,3.22,0.261
				c11.44-8.15,24.78-13.681,38.58-15.971c1.21-0.21,2.09-1.24,2.09-2.47v-20.34c0-1.38,1.12-2.5,2.5-2.5h22
				c1.38,0,2.5,1.12,2.5,2.5v20.34c0,1.229,0.88,2.26,2.09,2.47c13.8,2.29,27.14,7.82,38.58,15.971
				c0.97,0.699,2.38,0.579,3.22-0.261l14.38-14.39c0.996-0.974,2.539-0.979,3.54,0l15.56,15.56c0.973,0.994,0.978,2.543,0,3.54
				l-14.39,14.38c-0.86,0.87-0.98,2.221-0.27,3.221c8.16,11.439,13.69,24.779,15.98,38.58c0.21,1.21,1.24,2.09,2.47,2.09H243
				c1.38,0,2.5,1.12,2.5,2.5v22c0,1.38-1.12,2.5-2.5,2.5h-20.34c-1.23,0-2.26,0.88-2.47,2.09c-2.29,13.8-7.82,27.14-15.98,38.58
				c-0.71,1-0.59,2.35,0.27,3.22l14.39,14.38c0.973,0.994,0.978,2.543,0,3.54l-15.56,15.561c-0.984,0.962-2.531,0.988-3.54,0
				l-14.38-14.391c-0.85-0.84-2.25-0.96-3.22-0.27c-11.45,8.16-24.79,13.689-38.58,15.979c-1.21,0.2-2.09,1.24-2.09,2.471v20.34
				c0,1.38-1.12,2.5-2.5,2.5h-22c-1.38,0-2.5-1.12-2.5-2.5v-20.34c0-1.23-0.88-2.271-2.09-2.471
				c-13.79-2.29-27.13-7.819-38.58-15.979c-0.97-0.69-2.37-0.57-3.22,0.27l-14.38,14.391c-0.979,0.958-2.526,0.992-3.54,0
				l-15.56-15.561c-0.97-0.989-0.982-2.536,0-3.54l14.39-14.38c0.86-0.87,0.98-2.22,0.27-3.22c-2.28-3.19-4.37-6.55-6.21-9.98
				c-0.62-1.14-2.052-1.708-3.39-1.02c-1.188,0.656-1.688,2.14-1.01,3.39c1.61,3,3.4,5.96,5.32,8.771l-12.9,12.91
				c-2.878,2.857-2.976,7.622,0,10.6l15.56,15.56c2.919,2.941,7.687,2.923,10.6,0.011l12.91-12.91
				c11.19,7.62,23.58,12.75,36.83,15.25v18.25c0,4.13,3.37,7.5,7.5,7.5h22c4.13,0,7.5-3.37,7.5-7.5v-18.25
				c13.25-2.5,25.64-7.63,36.83-15.25l12.91,12.899c2.938,2.96,7.706,2.904,10.6,0.011l15.56-15.57c2.947-2.948,2.91-7.699,0-10.61
				l-12.9-12.899c7.62-11.19,12.75-23.58,15.25-36.83H243c4.14,0,7.5-3.36,7.5-7.5v-22C250.5,112.956,247.14,109.586,243,109.586z"
				/>
			<path d="M195.74,103.506c-1.292,0.411-2.031,1.814-1.61,3.14c0.436,1.334,1.844,2.029,3.15,1.61c1.31-0.42,2.03-1.83,1.61-3.15
				c0,0,0,0,0-0.01C198.47,103.826,197.03,103.086,195.74,103.506z"/>
			<path d="M128,53.586c-41.155,0-74.5,33.34-74.5,74.5c0,41.158,33.349,74.5,74.5,74.5c41.058,0,74.5-33.252,74.5-74.5
				c0-4.33-0.38-8.69-1.12-12.94c-0.23-1.34-1.54-2.27-2.9-2.029c-1.35,0.239-2.26,1.529-2.03,2.89c0.7,3.96,1.05,8.02,1.05,12.08
				c0,38.329-31.014,69.5-69.5,69.5c-38.486,0-69.5-31.171-69.5-69.5c0-38.395,31.082-69.5,69.51-69.5
				c26.81,0,50.77,14.99,62.52,39.12c0.58,1.199,2.13,1.75,3.34,1.16c1.24-0.61,1.76-2.11,1.16-3.341
				C182.821,70.46,157.214,53.586,128,53.586z"/>
			<path d="M138.98,81.156c0.41-1.31-0.32-2.72-1.64-3.13c-1.3-0.399-2.73,0.36-3.13,1.65c-0.407,1.3,0.297,2.703,1.64,3.13
				C137.299,83.214,138.6,82.412,138.98,81.156z"/>
			<path d="M143.72,138.646c11.234-6.111,18-18.272,17.22-31.109c-0.63-9.755-5.955-18.848-13.99-24.66
				c-1.08-0.79-2.71-0.521-3.49,0.56c-0.81,1.11-0.56,2.681,0.56,3.49c6.98,5.05,11.44,12.87,11.93,20.92
				c0.624,11.326-5.295,21.351-14.61,26.4c-4.654,2.52-7.84,7.161-7.84,13.38c0,3.02-2.47,5.49-5.5,5.5c-3.03-0.01-5.5-2.48-5.5-5.5
				c0-10.416,5.549-18.684,13.59-23.05c5.566-3.001,9.272-8.999,8.88-16.04c-0.55-8.25-7.16-15.061-15.37-15.841
				c-7.938-0.719-14.941,3.999-17.54,10.98c-0.76,2.06-2.8,3.45-5.09,3.45c-3.737-0.012-6.546-3.813-5.19-7.29
				c3.97-10.601,13.8-17.75,25.05-18.19c1.38-0.06,2.45-1.22,2.4-2.6c-0.06-1.38-1.21-2.48-2.6-2.4
				c-13.28,0.53-24.87,8.94-29.54,21.431c-2.537,6.837,2.63,14.027,9.88,14.04c4.35,0,8.28-2.69,9.78-6.69
				c1.849-4.992,6.916-8.285,12.4-7.75c5.65,0.47,10.51,5.479,10.83,11.16c0.178,5.278-2.377,9.22-6.27,11.35
				c-9.57,5.187-16.21,15.079-16.21,27.44c0,5.779,4.71,10.49,10.5,10.5c5.79-0.01,10.5-4.721,10.5-10.5
				C138.5,143.407,140.551,140.368,143.72,138.646z"/>
			<path d="M128,163.756c-5.24,0-9.5,4.26-9.5,9.5c0,5.229,4.26,9.5,9.5,9.5c5.24,0,9.5-4.271,9.5-9.5
				C137.5,168.016,133.24,163.756,128,163.756z M128,177.756c-2.48-0.01-4.49-2.03-4.5-4.5c0.01-2.48,2.02-4.5,4.5-4.5
				s4.5,2.02,4.5,4.5C132.5,175.726,130.48,177.746,128,177.756z"/>
		</g>
	</g>
</g>
</svg>
